<?xml version="1.0" encoding="UTF-8" standalone="no"?>
<!DOCTYPE svg PUBLIC "-//W3C//DTD SVG 1.1//EN"
 "http://www.w3.org/Graphics/SVG/1.1/DTD/svg11.dtd">
<!-- Generated by graphviz version 2.38.0 (20140413.2041)
 -->
<!-- Title: order_theory Pages: 1 -->
<svg width="980pt" height="547pt"
 viewBox="0.00 0.00 980.19 546.96" xmlns="http://www.w3.org/2000/svg" xmlns:xlink="http://www.w3.org/1999/xlink">
<g id="graph0" class="graph" transform="scale(1 1) rotate(0) translate(4 542.96)">
<title>order_theory</title>
<polygon fill="white" stroke="none" points="-4,4 -4,-542.96 976.186,-542.96 976.186,4 -4,4"/>
<!-- 0 -->
<g id="node1" class="node"><title>0</title>
<g id="a_node1"><a xlink:href="https://en.wikipedia.org/wiki/Binary_relation" xlink:title="Binary relation\nBetween sets A B">
<ellipse fill="none" stroke="black" cx="686.343" cy="-512.09" rx="80.7205" ry="26.7407"/>
<text text-anchor="middle" x="686.343" y="-515.89" font-family="Times,serif" font-size="14.00">Binary relation</text>
<text text-anchor="middle" x="686.343" y="-500.89" font-family="Times,serif" font-size="14.00">Between sets A B</text>
</a>
</g>
</g>
<!-- 1 -->
<g id="node2" class="node"><title>1</title>
<g id="a_node2"><a xlink:href="https://en.wikipedia.org/wiki/Binary_relation" xlink:title="Endorelation\n(A == B)">
<ellipse fill="none" stroke="black" cx="464.343" cy="-422.35" rx="60.623" ry="26.7407"/>
<text text-anchor="middle" x="464.343" y="-426.15" font-family="Times,serif" font-size="14.00">Endorelation</text>
<text text-anchor="middle" x="464.343" y="-411.15" font-family="Times,serif" font-size="14.00">(A == B)</text>
</a>
</g>
</g>
<!-- 1&#45;&gt;0 -->
<g id="edge1" class="edge"><title>1&#45;&gt;0</title>
<path fill="none" stroke="black" d="M508.735,-440.895C542.419,-454.208 589.091,-472.654 626.138,-487.296"/>
<polygon fill="black" stroke="black" points="625.236,-490.703 635.823,-491.123 627.809,-484.193 625.236,-490.703"/>
</g>
<!-- 5 -->
<g id="node3" class="node"><title>5</title>
<g id="a_node3"><a xlink:href="https://en.wikipedia.org/wiki/Heterogeneous_relation" xlink:title="Heterogeneous relation\n(A /=B)">
<ellipse fill="none" stroke="black" cx="686.343" cy="-422.35" rx="101.233" ry="26.7407"/>
<text text-anchor="middle" x="686.343" y="-426.15" font-family="Times,serif" font-size="14.00">Heterogeneous relation</text>
<text text-anchor="middle" x="686.343" y="-411.15" font-family="Times,serif" font-size="14.00">(A /=B)</text>
</a>
</g>
</g>
<!-- 5&#45;&gt;0 -->
<g id="edge2" class="edge"><title>5&#45;&gt;0</title>
<path fill="none" stroke="black" d="M686.343,-449.675C686.343,-457.642 686.343,-466.533 686.343,-475.021"/>
<polygon fill="black" stroke="black" points="682.843,-475.086 686.343,-485.086 689.843,-475.086 682.843,-475.086"/>
</g>
<!-- 6 -->
<g id="node4" class="node"><title>6</title>
<g id="a_node4"><a xlink:href="https://en.wikipedia.org/wiki/Total_order" xlink:title="Total Order">
<ellipse fill="none" stroke="black" cx="535.343" cy="-90" rx="51.9908" ry="18"/>
<text text-anchor="middle" x="535.343" y="-86.3" font-family="Times,serif" font-size="14.00">Total Order</text>
</a>
</g>
</g>
<!-- 7 -->
<g id="node5" class="node"><title>7</title>
<g id="a_node5"><a xlink:href="https://en.wikipedia.org/wiki/Partially_ordered_set" xlink:title="Partial order\n(non&#45;strict)">
<ellipse fill="none" stroke="black" cx="370.343" cy="-170.87" rx="59.2941" ry="26.7407"/>
<text text-anchor="middle" x="370.343" y="-174.67" font-family="Times,serif" font-size="14.00">Partial order</text>
<text text-anchor="middle" x="370.343" y="-159.67" font-family="Times,serif" font-size="14.00">(non&#45;strict)</text>
</a>
</g>
</g>
<!-- 6&#45;&gt;7 -->
<g id="edge9" class="edge"><title>6&#45;&gt;7</title>
<path fill="none" stroke="black" d="M506.224,-104.919C482.286,-116.361 447.839,-132.827 419.619,-146.316"/>
<polygon fill="black" stroke="black" points="417.824,-143.295 410.311,-150.765 420.843,-149.61 417.824,-143.295"/>
</g>
<!-- 11 -->
<g id="node8" class="node"><title>11</title>
<g id="a_node8"><a xlink:href="https://en.wikipedia.org/wiki/Connex_relation" xlink:title="Connex relation">
<ellipse fill="none" stroke="black" cx="700.343" cy="-170.87" rx="67.6881" ry="18"/>
<text text-anchor="middle" x="700.343" y="-167.17" font-family="Times,serif" font-size="14.00">Connex relation</text>
</a>
</g>
</g>
<!-- 6&#45;&gt;11 -->
<g id="edge10" class="edge"><title>6&#45;&gt;11</title>
<path fill="none" stroke="black" d="M564.462,-104.919C590.926,-117.568 630.231,-136.357 659.77,-150.476"/>
<polygon fill="black" stroke="black" points="658.457,-153.728 668.989,-154.883 661.476,-147.412 658.457,-153.728"/>
</g>
<!-- 8 -->
<g id="node6" class="node"><title>8</title>
<g id="a_node6"><a xlink:href="https://en.wikipedia.org/wiki/Preorder" xlink:title="Preorder">
<ellipse fill="none" stroke="black" cx="422.343" cy="-260.61" rx="40.8928" ry="18"/>
<text text-anchor="middle" x="422.343" y="-256.91" font-family="Times,serif" font-size="14.00">Preorder</text>
</a>
</g>
</g>
<!-- 7&#45;&gt;8 -->
<g id="edge11" class="edge"><title>7&#45;&gt;8</title>
<path fill="none" stroke="black" d="M385.384,-197.248C392.247,-208.829 400.358,-222.515 407.231,-234.111"/>
<polygon fill="black" stroke="black" points="404.32,-236.064 412.429,-242.883 410.342,-232.495 404.32,-236.064"/>
</g>
<!-- 12 -->
<g id="node9" class="node"><title>12</title>
<g id="a_node9"><a xlink:href="https://en.wikipedia.org/wiki/Antisymmetric_relation" xlink:title="Antisymmetric relation">
<ellipse fill="lightblue" stroke="black" cx="266.343" cy="-341.48" rx="93.6835" ry="18"/>
<text text-anchor="middle" x="266.343" y="-337.78" font-family="Times,serif" font-size="14.00">Antisymmetric relation</text>
</a>
</g>
</g>
<!-- 7&#45;&gt;12 -->
<g id="edge12" class="edge"><title>7&#45;&gt;12</title>
<path fill="none" stroke="black" d="M354.773,-197.113C335.278,-228.719 302.055,-282.583 282.355,-314.521"/>
<polygon fill="black" stroke="black" points="279.214,-312.947 276.943,-323.296 285.171,-316.622 279.214,-312.947"/>
</g>
<!-- 13 -->
<g id="node10" class="node"><title>13</title>
<g id="a_node10"><a xlink:href="https://en.wikipedia.org/wiki/Transitive_relation" xlink:title="Transitive relation">
<ellipse fill="lightblue" stroke="black" cx="453.343" cy="-341.48" rx="75.2868" ry="18"/>
<text text-anchor="middle" x="453.343" y="-337.78" font-family="Times,serif" font-size="14.00">Transitive relation</text>
</a>
</g>
</g>
<!-- 8&#45;&gt;13 -->
<g id="edge16" class="edge"><title>8&#45;&gt;13</title>
<path fill="none" stroke="black" d="M429.07,-278.724C433.091,-288.956 438.288,-302.177 442.841,-313.76"/>
<polygon fill="black" stroke="black" points="439.714,-315.373 446.63,-323.4 446.229,-312.813 439.714,-315.373"/>
</g>
<!-- 14 -->
<g id="node11" class="node"><title>14</title>
<g id="a_node11"><a xlink:href="https://en.wikipedia.org/wiki/Reflexive_relation" xlink:title="Reflexive relation">
<ellipse fill="lightblue" stroke="black" cx="620.343" cy="-341.48" rx="74.187" ry="18"/>
<text text-anchor="middle" x="620.343" y="-337.78" font-family="Times,serif" font-size="14.00">Reflexive relation</text>
</a>
</g>
</g>
<!-- 8&#45;&gt;14 -->
<g id="edge17" class="edge"><title>8&#45;&gt;14</title>
<path fill="none" stroke="black" d="M446.429,-275.21C454.258,-279.391 463.064,-283.845 471.343,-287.48 502.376,-301.107 538.127,-313.916 566.829,-323.527"/>
<polygon fill="black" stroke="black" points="566.075,-326.964 576.668,-326.789 568.278,-320.32 566.075,-326.964"/>
</g>
<!-- 9 -->
<g id="node7" class="node"><title>9</title>
<g id="a_node7"><a xlink:href="https://en.wikipedia.org/wiki/Equivalence_relation" xlink:title="Equivalence relation">
<ellipse fill="none" stroke="black" cx="531.343" cy="-170.87" rx="83.3857" ry="18"/>
<text text-anchor="middle" x="531.343" y="-167.17" font-family="Times,serif" font-size="14.00">Equivalence relation</text>
</a>
</g>
</g>
<!-- 9&#45;&gt;8 -->
<g id="edge13" class="edge"><title>9&#45;&gt;8</title>
<path fill="none" stroke="black" d="M510.841,-188.373C493.436,-202.384 468.328,-222.594 449.299,-237.912"/>
<polygon fill="black" stroke="black" points="446.89,-235.358 441.294,-244.355 451.279,-240.811 446.89,-235.358"/>
</g>
<!-- 19 -->
<g id="node15" class="node"><title>19</title>
<g id="a_node15"><a xlink:href="https://en.wikipedia.org/wiki/Partial_equivalence_relation" xlink:title="Partial\nEquivalence relation">
<ellipse fill="none" stroke="black" cx="571.343" cy="-260.61" rx="90.5193" ry="26.7407"/>
<text text-anchor="middle" x="571.343" y="-264.41" font-family="Times,serif" font-size="14.00">Partial</text>
<text text-anchor="middle" x="571.343" y="-249.41" font-family="Times,serif" font-size="14.00">Equivalence relation</text>
</a>
</g>
</g>
<!-- 9&#45;&gt;19 -->
<g id="edge14" class="edge"><title>9&#45;&gt;19</title>
<path fill="none" stroke="black" d="M539.246,-189.205C543.809,-199.214 549.718,-212.176 555.22,-224.244"/>
<polygon fill="black" stroke="black" points="552.179,-226.011 559.512,-233.658 558.548,-223.107 552.179,-226.011"/>
</g>
<!-- 23 -->
<g id="node19" class="node"><title>23</title>
<g id="a_node19"><a xlink:href="https://en.wikipedia.org/wiki/Tolerance_relation" xlink:title="Tolerance relation">
<ellipse fill="none" stroke="black" cx="793.343" cy="-260.61" rx="75.2868" ry="18"/>
<text text-anchor="middle" x="793.343" y="-256.91" font-family="Times,serif" font-size="14.00">Tolerance relation</text>
</a>
</g>
</g>
<!-- 9&#45;&gt;23 -->
<g id="edge15" class="edge"><title>9&#45;&gt;23</title>
<path fill="none" stroke="black" d="M574.607,-186.359C620.431,-201.704 692.761,-225.927 741.578,-242.275"/>
<polygon fill="black" stroke="black" points="740.723,-245.679 751.316,-245.536 742.945,-239.042 740.723,-245.679"/>
</g>
<!-- 11&#45;&gt;14 -->
<g id="edge20" class="edge"><title>11&#45;&gt;14</title>
<path fill="none" stroke="black" d="M698.834,-188.951C696.162,-212.44 689.095,-255.443 671.343,-287.48 665.36,-298.279 656.622,-308.48 648.063,-316.995"/>
<polygon fill="black" stroke="black" points="645.508,-314.595 640.662,-324.017 650.326,-319.673 645.508,-314.595"/>
</g>
<!-- 12&#45;&gt;1 -->
<g id="edge4" class="edge"><title>12&#45;&gt;1</title>
<path fill="none" stroke="black" d="M304.99,-357.874C335.104,-369.87 377.267,-386.665 410.66,-399.966"/>
<polygon fill="black" stroke="black" points="409.686,-403.346 420.272,-403.795 412.277,-396.843 409.686,-403.346"/>
</g>
<!-- 13&#45;&gt;1 -->
<g id="edge5" class="edge"><title>13&#45;&gt;1</title>
<path fill="none" stroke="black" d="M455.73,-359.594C456.786,-367.165 458.07,-376.372 459.321,-385.342"/>
<polygon fill="black" stroke="black" points="455.857,-385.847 460.705,-395.267 462.79,-384.88 455.857,-385.847"/>
</g>
<!-- 14&#45;&gt;1 -->
<g id="edge6" class="edge"><title>14&#45;&gt;1</title>
<path fill="none" stroke="black" d="M589.523,-358.062C567.537,-369.178 537.542,-384.343 512.425,-397.041"/>
<polygon fill="black" stroke="black" points="510.761,-393.96 503.416,-401.596 513.919,-400.207 510.761,-393.96"/>
</g>
<!-- 15 -->
<g id="node12" class="node"><title>15</title>
<g id="a_node12"><a xlink:href="https://en.wikipedia.org/wiki/Asymmetric_relation" xlink:title="Asymmetric relation">
<ellipse fill="none" stroke="black" cx="203.343" cy="-260.61" rx="84.485" ry="18"/>
<text text-anchor="middle" x="203.343" y="-256.91" font-family="Times,serif" font-size="14.00">Asymmetric relation</text>
</a>
</g>
</g>
<!-- 15&#45;&gt;12 -->
<g id="edge18" class="edge"><title>15&#45;&gt;12</title>
<path fill="none" stroke="black" d="M217.013,-278.724C225.599,-289.472 236.82,-303.52 246.39,-315.501"/>
<polygon fill="black" stroke="black" points="243.724,-317.771 252.7,-323.4 249.193,-313.402 243.724,-317.771"/>
</g>
<!-- 18 -->
<g id="node14" class="node"><title>18</title>
<g id="a_node14"><a xlink:href="https://en.wikipedia.org/wiki/Reflexive_relation" xlink:title="Irreflexive relation">
<ellipse fill="lightblue" stroke="black" cx="77.3431" cy="-341.48" rx="77.1866" ry="18"/>
<text text-anchor="middle" x="77.3431" y="-337.78" font-family="Times,serif" font-size="14.00">Irreflexive relation</text>
</a>
</g>
</g>
<!-- 15&#45;&gt;18 -->
<g id="edge19" class="edge"><title>15&#45;&gt;18</title>
<path fill="none" stroke="black" d="M177.541,-277.761C158.516,-289.67 132.439,-305.993 111.657,-319.001"/>
<polygon fill="black" stroke="black" points="109.73,-316.078 103.111,-324.351 113.444,-322.012 109.73,-316.078"/>
</g>
<!-- 16 -->
<g id="node13" class="node"><title>16</title>
<g id="a_node13"><a xlink:href="https://en.wikipedia.org/wiki/Symmetric_relation" xlink:title="Symmetric relation">
<ellipse fill="lightblue" stroke="black" cx="791.343" cy="-341.48" rx="79.0865" ry="18"/>
<text text-anchor="middle" x="791.343" y="-337.78" font-family="Times,serif" font-size="14.00">Symmetric relation</text>
</a>
</g>
</g>
<!-- 16&#45;&gt;1 -->
<g id="edge7" class="edge"><title>16&#45;&gt;1</title>
<path fill="none" stroke="black" d="M739.167,-355.065C681.435,-368.989 588.437,-391.42 526.855,-406.273"/>
<polygon fill="black" stroke="black" points="525.775,-402.933 516.874,-408.68 527.416,-409.738 525.775,-402.933"/>
</g>
<!-- 18&#45;&gt;1 -->
<g id="edge8" class="edge"><title>18&#45;&gt;1</title>
<path fill="none" stroke="black" d="M133.616,-353.949C204.293,-368.353 325.294,-393.012 399.698,-408.176"/>
<polygon fill="black" stroke="black" points="399.38,-411.683 409.878,-410.25 400.778,-404.824 399.38,-411.683"/>
</g>
<!-- 19&#45;&gt;13 -->
<g id="edge21" class="edge"><title>19&#45;&gt;13</title>
<path fill="none" stroke="black" d="M535.619,-285.488C519.855,-296.024 501.451,-308.325 486.052,-318.618"/>
<polygon fill="black" stroke="black" points="483.743,-315.951 477.374,-324.418 487.633,-321.771 483.743,-315.951"/>
</g>
<!-- 19&#45;&gt;16 -->
<g id="edge22" class="edge"><title>19&#45;&gt;16</title>
<path fill="none" stroke="black" d="M627.428,-281.716C662.42,-294.261 707.083,-310.273 740.948,-322.413"/>
<polygon fill="black" stroke="black" points="740.047,-325.808 750.641,-325.889 742.409,-319.219 740.047,-325.808"/>
</g>
<!-- 20 -->
<g id="node16" class="node"><title>20</title>
<g id="a_node16"><a xlink:href="https://en.wikipedia.org/wiki/Well-order" xlink:title="Well&#45;order">
<ellipse fill="none" stroke="black" cx="535.343" cy="-18" rx="50.0912" ry="18"/>
<text text-anchor="middle" x="535.343" y="-14.3" font-family="Times,serif" font-size="14.00">Well&#45;order</text>
</a>
</g>
</g>
<!-- 20&#45;&gt;6 -->
<g id="edge23" class="edge"><title>20&#45;&gt;6</title>
<path fill="none" stroke="black" d="M535.343,-36.3034C535.343,-44.0173 535.343,-53.2875 535.343,-61.8876"/>
<polygon fill="black" stroke="black" points="531.843,-61.8956 535.343,-71.8957 538.843,-61.8957 531.843,-61.8956"/>
</g>
<!-- 21 -->
<g id="node17" class="node"><title>21</title>
<g id="a_node17"><a xlink:href="https://en.wikipedia.org/wiki/Partially_ordered_set" xlink:title="Partial order\n(strict)">
<ellipse fill="none" stroke="black" cx="223.343" cy="-170.87" rx="59.2941" ry="26.7407"/>
<text text-anchor="middle" x="223.343" y="-174.67" font-family="Times,serif" font-size="14.00">Partial order</text>
<text text-anchor="middle" x="223.343" y="-159.67" font-family="Times,serif" font-size="14.00">(strict)</text>
</a>
</g>
</g>
<!-- 21&#45;&gt;13 -->
<g id="edge24" class="edge"><title>21&#45;&gt;13</title>
<path fill="none" stroke="black" d="M251.392,-194.726C280.965,-218.563 329.163,-256.677 372.343,-287.48 387.411,-298.23 404.507,-309.54 419.097,-318.939"/>
<polygon fill="black" stroke="black" points="417.507,-322.077 427.816,-324.522 421.282,-316.182 417.507,-322.077"/>
</g>
<!-- 21&#45;&gt;15 -->
<g id="edge25" class="edge"><title>21&#45;&gt;15</title>
<path fill="none" stroke="black" d="M217.451,-197.72C214.953,-208.676 212.042,-221.447 209.515,-232.532"/>
<polygon fill="black" stroke="black" points="206.046,-232.003 207.236,-242.53 212.871,-233.558 206.046,-232.003"/>
</g>
<!-- 22 -->
<g id="node18" class="node"><title>22</title>
<g id="a_node18"><a xlink:href="https://en.wikipedia.org/wiki/Dependency_relation" xlink:title="Dependency relation">
<ellipse fill="none" stroke="black" cx="888.343" cy="-170.87" rx="83.6854" ry="18"/>
<text text-anchor="middle" x="888.343" y="-167.17" font-family="Times,serif" font-size="14.00">Dependency relation</text>
</a>
</g>
</g>
<!-- 22&#45;&gt;23 -->
<g id="edge28" class="edge"><title>22&#45;&gt;23</title>
<path fill="none" stroke="black" d="M870.026,-188.787C855.477,-202.225 834.963,-221.171 818.814,-236.086"/>
<polygon fill="black" stroke="black" points="816.253,-233.686 811.282,-243.042 821.003,-238.829 816.253,-233.686"/>
</g>
<!-- 24 -->
<g id="node20" class="node"><title>24</title>
<ellipse fill="lightblue" stroke="black" cx="887.343" cy="-422.35" rx="60.3893" ry="18"/>
<text text-anchor="middle" x="887.343" y="-418.65" font-family="Times,serif" font-size="14.00">Finite relation</text>
</g>
<!-- 22&#45;&gt;24 -->
<g id="edge29" class="edge"><title>22&#45;&gt;24</title>
<path fill="none" stroke="black" d="M888.274,-189.018C888.104,-231.567 887.66,-342.275 887.453,-393.989"/>
<polygon fill="black" stroke="black" points="883.953,-394.069 887.412,-404.083 890.953,-394.097 883.953,-394.069"/>
</g>
<!-- 23&#45;&gt;14 -->
<g id="edge26" class="edge"><title>23&#45;&gt;14</title>
<path fill="none" stroke="black" d="M759.987,-276.817C732.344,-289.419 692.879,-307.411 662.952,-321.055"/>
<polygon fill="black" stroke="black" points="661.244,-317.987 653.597,-325.32 664.148,-324.356 661.244,-317.987"/>
</g>
<!-- 23&#45;&gt;16 -->
<g id="edge27" class="edge"><title>23&#45;&gt;16</title>
<path fill="none" stroke="black" d="M792.909,-278.724C792.655,-288.749 792.328,-301.644 792.039,-313.056"/>
<polygon fill="black" stroke="black" points="788.531,-313.314 791.776,-323.4 795.529,-313.492 788.531,-313.314"/>
</g>
<!-- 24&#45;&gt;0 -->
<g id="edge3" class="edge"><title>24&#45;&gt;0</title>
<path fill="none" stroke="black" d="M854.602,-437.643C824.579,-450.748 779.457,-470.445 743.495,-486.143"/>
<polygon fill="black" stroke="black" points="741.855,-483.039 734.091,-490.248 744.656,-489.455 741.855,-483.039"/>
</g>
</g>
</svg>
