<?xml version="1.0" encoding="UTF-8" standalone="no"?>
<!DOCTYPE svg PUBLIC "-//W3C//DTD SVG 1.1//EN"
 "http://www.w3.org/Graphics/SVG/1.1/DTD/svg11.dtd">
<!-- Generated by graphviz version 2.38.0 (20140413.2041)
 -->
<!-- Title: order_theory Pages: 1 -->
<svg width="1017pt" height="547pt"
 viewBox="0.00 0.00 1017.04 546.96" xmlns="http://www.w3.org/2000/svg" xmlns:xlink="http://www.w3.org/1999/xlink">
<g id="graph0" class="graph" transform="scale(1 1) rotate(0) translate(4 542.96)">
<title>order_theory</title>
<polygon fill="white" stroke="none" points="-4,4 -4,-542.96 1013.04,-542.96 1013.04,4 -4,4"/>
<!-- 0 -->
<g id="node1" class="node"><title>0</title>
<g id="a_node1"><a xlink:href="https://en.wikipedia.org/wiki/Binary_relation" xlink:title="Binary relation\nBetween sets A B">
<ellipse fill="none" stroke="black" cx="747.594" cy="-512.09" rx="80.7205" ry="26.7407"/>
<text text-anchor="middle" x="747.594" y="-515.89" font-family="Times,serif" font-size="14.00">Binary relation</text>
<text text-anchor="middle" x="747.594" y="-500.89" font-family="Times,serif" font-size="14.00">Between sets A B</text>
</a>
</g>
</g>
<!-- 1 -->
<g id="node2" class="node"><title>1</title>
<g id="a_node2"><a xlink:href="https://en.wikipedia.org/wiki/Binary_relation" xlink:title="Endorelation\n(A == B)">
<ellipse fill="none" stroke="black" cx="525.594" cy="-422.35" rx="60.623" ry="26.7407"/>
<text text-anchor="middle" x="525.594" y="-426.15" font-family="Times,serif" font-size="14.00">Endorelation</text>
<text text-anchor="middle" x="525.594" y="-411.15" font-family="Times,serif" font-size="14.00">(A == B)</text>
</a>
</g>
</g>
<!-- 1&#45;&gt;0 -->
<g id="edge1" class="edge"><title>1&#45;&gt;0</title>
<path fill="none" stroke="black" d="M569.985,-440.895C603.67,-454.208 650.341,-472.654 687.388,-487.296"/>
<polygon fill="black" stroke="black" points="686.487,-490.703 697.073,-491.123 689.06,-484.193 686.487,-490.703"/>
</g>
<!-- 5 -->
<g id="node3" class="node"><title>5</title>
<g id="a_node3"><a xlink:href="https://en.wikipedia.org/wiki/Heterogeneous_relation" xlink:title="Heterogeneous relation\n(A /=B)">
<ellipse fill="none" stroke="black" cx="747.594" cy="-422.35" rx="101.233" ry="26.7407"/>
<text text-anchor="middle" x="747.594" y="-426.15" font-family="Times,serif" font-size="14.00">Heterogeneous relation</text>
<text text-anchor="middle" x="747.594" y="-411.15" font-family="Times,serif" font-size="14.00">(A /=B)</text>
</a>
</g>
</g>
<!-- 5&#45;&gt;0 -->
<g id="edge2" class="edge"><title>5&#45;&gt;0</title>
<path fill="none" stroke="black" d="M747.594,-449.675C747.594,-457.642 747.594,-466.533 747.594,-475.021"/>
<polygon fill="black" stroke="black" points="744.094,-475.086 747.594,-485.086 751.094,-475.086 744.094,-475.086"/>
</g>
<!-- 6 -->
<g id="node4" class="node"><title>6</title>
<g id="a_node4"><a xlink:href="https://en.wikipedia.org/wiki/Total_order" xlink:title="Total Order">
<ellipse fill="none" stroke="black" cx="219.594" cy="-90" rx="51.9908" ry="18"/>
<text text-anchor="middle" x="219.594" y="-86.3" font-family="Times,serif" font-size="14.00">Total Order</text>
</a>
</g>
</g>
<!-- 7 -->
<g id="node5" class="node"><title>7</title>
<g id="a_node5"><a xlink:href="https://en.wikipedia.org/wiki/Partially_ordered_set" xlink:title="Partial order\n(non&#45;strict)">
<ellipse fill="none" stroke="black" cx="372.594" cy="-170.87" rx="59.2941" ry="26.7407"/>
<text text-anchor="middle" x="372.594" y="-174.67" font-family="Times,serif" font-size="14.00">Partial order</text>
<text text-anchor="middle" x="372.594" y="-159.67" font-family="Times,serif" font-size="14.00">(non&#45;strict)</text>
</a>
</g>
</g>
<!-- 6&#45;&gt;7 -->
<g id="edge10" class="edge"><title>6&#45;&gt;7</title>
<path fill="none" stroke="black" d="M247.301,-105.283C269.006,-116.471 299.704,-132.296 325.282,-145.481"/>
<polygon fill="black" stroke="black" points="323.955,-148.735 334.447,-150.206 327.162,-142.513 323.955,-148.735"/>
</g>
<!-- 11 -->
<g id="node8" class="node"><title>11</title>
<g id="a_node8"><a xlink:href="https://en.wikipedia.org/wiki/Connex_relation" xlink:title="Connex relation">
<ellipse fill="lightblue" stroke="black" cx="67.594" cy="-170.87" rx="67.6881" ry="18"/>
<text text-anchor="middle" x="67.594" y="-167.17" font-family="Times,serif" font-size="14.00">Connex relation</text>
</a>
</g>
</g>
<!-- 6&#45;&gt;11 -->
<g id="edge11" class="edge"><title>6&#45;&gt;11</title>
<path fill="none" stroke="black" d="M192.068,-105.283C168.038,-117.751 132.912,-135.978 106.096,-149.892"/>
<polygon fill="black" stroke="black" points="104.254,-146.905 96.9898,-154.617 107.478,-153.118 104.254,-146.905"/>
</g>
<!-- 8 -->
<g id="node6" class="node"><title>8</title>
<g id="a_node6"><a xlink:href="https://en.wikipedia.org/wiki/Preorder" xlink:title="Preorder">
<ellipse fill="none" stroke="black" cx="526.594" cy="-260.61" rx="40.8928" ry="18"/>
<text text-anchor="middle" x="526.594" y="-256.91" font-family="Times,serif" font-size="14.00">Preorder</text>
</a>
</g>
</g>
<!-- 7&#45;&gt;8 -->
<g id="edge12" class="edge"><title>7&#45;&gt;8</title>
<path fill="none" stroke="black" d="M408.7,-192.441C434.354,-207.057 468.539,-226.534 493.49,-240.75"/>
<polygon fill="black" stroke="black" points="491.811,-243.821 502.232,-245.73 495.276,-237.739 491.811,-243.821"/>
</g>
<!-- 12 -->
<g id="node9" class="node"><title>12</title>
<g id="a_node9"><a xlink:href="https://en.wikipedia.org/wiki/Antisymmetric_relation" xlink:title="Antisymmetric relation">
<ellipse fill="lightblue" stroke="black" cx="338.594" cy="-341.48" rx="93.6835" ry="18"/>
<text text-anchor="middle" x="338.594" y="-337.78" font-family="Times,serif" font-size="14.00">Antisymmetric relation</text>
</a>
</g>
</g>
<!-- 7&#45;&gt;12 -->
<g id="edge13" class="edge"><title>7&#45;&gt;12</title>
<path fill="none" stroke="black" d="M367.356,-197.846C361.03,-229.218 350.442,-281.726 344.029,-313.529"/>
<polygon fill="black" stroke="black" points="340.572,-312.965 342.026,-323.46 347.434,-314.349 340.572,-312.965"/>
</g>
<!-- 13 -->
<g id="node10" class="node"><title>13</title>
<g id="a_node10"><a xlink:href="https://en.wikipedia.org/wiki/Transitive_relation" xlink:title="Transitive relation">
<ellipse fill="lightblue" stroke="black" cx="525.594" cy="-341.48" rx="75.2868" ry="18"/>
<text text-anchor="middle" x="525.594" y="-337.78" font-family="Times,serif" font-size="14.00">Transitive relation</text>
</a>
</g>
</g>
<!-- 8&#45;&gt;13 -->
<g id="edge17" class="edge"><title>8&#45;&gt;13</title>
<path fill="none" stroke="black" d="M526.377,-278.724C526.25,-288.749 526.086,-301.644 525.942,-313.056"/>
<polygon fill="black" stroke="black" points="522.438,-313.356 525.811,-323.4 529.437,-313.445 522.438,-313.356"/>
</g>
<!-- 14 -->
<g id="node11" class="node"><title>14</title>
<g id="a_node11"><a xlink:href="https://en.wikipedia.org/wiki/Reflexive_relation" xlink:title="Reflexive relation">
<ellipse fill="lightblue" stroke="black" cx="692.594" cy="-341.48" rx="74.187" ry="18"/>
<text text-anchor="middle" x="692.594" y="-337.78" font-family="Times,serif" font-size="14.00">Reflexive relation</text>
</a>
</g>
</g>
<!-- 8&#45;&gt;14 -->
<g id="edge18" class="edge"><title>8&#45;&gt;14</title>
<path fill="none" stroke="black" d="M552.184,-274.827C560.279,-278.945 569.283,-283.459 577.594,-287.48 601.296,-298.949 627.993,-311.287 649.694,-321.172"/>
<polygon fill="black" stroke="black" points="648.422,-324.438 658.974,-325.388 651.317,-318.065 648.422,-324.438"/>
</g>
<!-- 9 -->
<g id="node7" class="node"><title>9</title>
<g id="a_node7"><a xlink:href="https://en.wikipedia.org/wiki/Equivalence_relation" xlink:title="Equivalence relation">
<ellipse fill="none" stroke="black" cx="677.594" cy="-170.87" rx="83.3857" ry="18"/>
<text text-anchor="middle" x="677.594" y="-167.17" font-family="Times,serif" font-size="14.00">Equivalence relation</text>
</a>
</g>
</g>
<!-- 9&#45;&gt;8 -->
<g id="edge14" class="edge"><title>9&#45;&gt;8</title>
<path fill="none" stroke="black" d="M649.898,-187.963C624.349,-202.809 586.393,-224.863 559.349,-240.577"/>
<polygon fill="black" stroke="black" points="557.518,-237.594 550.63,-245.644 561.035,-243.646 557.518,-237.594"/>
</g>
<!-- 19 -->
<g id="node15" class="node"><title>19</title>
<g id="a_node15"><a xlink:href="https://en.wikipedia.org/wiki/Partial_equivalence_relation" xlink:title="Partial\nEquivalence relation">
<ellipse fill="none" stroke="black" cx="677.594" cy="-260.61" rx="90.5193" ry="26.7407"/>
<text text-anchor="middle" x="677.594" y="-264.41" font-family="Times,serif" font-size="14.00">Partial</text>
<text text-anchor="middle" x="677.594" y="-249.41" font-family="Times,serif" font-size="14.00">Equivalence relation</text>
</a>
</g>
</g>
<!-- 9&#45;&gt;19 -->
<g id="edge15" class="edge"><title>9&#45;&gt;19</title>
<path fill="none" stroke="black" d="M677.594,-189.205C677.594,-199.016 677.594,-211.663 677.594,-223.526"/>
<polygon fill="black" stroke="black" points="674.094,-223.658 677.594,-233.658 681.094,-223.658 674.094,-223.658"/>
</g>
<!-- 23 -->
<g id="node19" class="node"><title>23</title>
<g id="a_node19"><a xlink:href="https://en.wikipedia.org/wiki/Tolerance_relation" xlink:title="Tolerance relation">
<ellipse fill="none" stroke="black" cx="862.594" cy="-260.61" rx="75.2868" ry="18"/>
<text text-anchor="middle" x="862.594" y="-256.91" font-family="Times,serif" font-size="14.00">Tolerance relation</text>
</a>
</g>
</g>
<!-- 9&#45;&gt;23 -->
<g id="edge16" class="edge"><title>9&#45;&gt;23</title>
<path fill="none" stroke="black" d="M710.668,-187.556C741.543,-202.199 787.736,-224.107 821.077,-239.92"/>
<polygon fill="black" stroke="black" points="819.581,-243.084 830.116,-244.207 822.581,-236.759 819.581,-243.084"/>
</g>
<!-- 11&#45;&gt;1 -->
<g id="edge4" class="edge"><title>11&#45;&gt;1</title>
<path fill="none" stroke="black" d="M60.5299,-188.921C46.7392,-225.254 21.1165,-310.935 63.594,-359.48 88.9918,-388.506 332.771,-408.612 455.594,-416.987"/>
<polygon fill="black" stroke="black" points="455.445,-420.485 465.658,-417.665 455.916,-413.501 455.445,-420.485"/>
</g>
<!-- 12&#45;&gt;1 -->
<g id="edge5" class="edge"><title>12&#45;&gt;1</title>
<path fill="none" stroke="black" d="M375.539,-358.062C403.417,-369.82 442.038,-386.109 473.117,-399.217"/>
<polygon fill="black" stroke="black" points="471.926,-402.513 482.5,-403.175 474.646,-396.064 471.926,-402.513"/>
</g>
<!-- 13&#45;&gt;1 -->
<g id="edge6" class="edge"><title>13&#45;&gt;1</title>
<path fill="none" stroke="black" d="M525.594,-359.594C525.594,-367.083 525.594,-376.175 525.594,-385.052"/>
<polygon fill="black" stroke="black" points="522.094,-385.267 525.594,-395.267 529.094,-385.267 522.094,-385.267"/>
</g>
<!-- 14&#45;&gt;1 -->
<g id="edge7" class="edge"><title>14&#45;&gt;1</title>
<path fill="none" stroke="black" d="M659.998,-357.874C635.864,-369.273 602.554,-385.004 575.134,-397.954"/>
<polygon fill="black" stroke="black" points="573.63,-394.793 566.082,-402.229 576.619,-401.123 573.63,-394.793"/>
</g>
<!-- 15 -->
<g id="node12" class="node"><title>15</title>
<g id="a_node12"><a xlink:href="https://en.wikipedia.org/wiki/Asymmetric_relation" xlink:title="Asymmetric relation">
<ellipse fill="none" stroke="black" cx="235.594" cy="-260.61" rx="84.485" ry="18"/>
<text text-anchor="middle" x="235.594" y="-256.91" font-family="Times,serif" font-size="14.00">Asymmetric relation</text>
</a>
</g>
</g>
<!-- 15&#45;&gt;12 -->
<g id="edge19" class="edge"><title>15&#45;&gt;12</title>
<path fill="none" stroke="black" d="M257.438,-278.336C272.322,-289.734 292.221,-304.971 308.589,-317.505"/>
<polygon fill="black" stroke="black" points="306.714,-320.477 316.782,-323.778 310.97,-314.919 306.714,-320.477"/>
</g>
<!-- 18 -->
<g id="node14" class="node"><title>18</title>
<g id="a_node14"><a xlink:href="https://en.wikipedia.org/wiki/Reflexive_relation" xlink:title="Irreflexive relation">
<ellipse fill="lightblue" stroke="black" cx="149.594" cy="-341.48" rx="77.1866" ry="18"/>
<text text-anchor="middle" x="149.594" y="-337.78" font-family="Times,serif" font-size="14.00">Irreflexive relation</text>
</a>
</g>
</g>
<!-- 15&#45;&gt;18 -->
<g id="edge20" class="edge"><title>15&#45;&gt;18</title>
<path fill="none" stroke="black" d="M217.356,-278.336C205.156,-289.525 188.921,-304.413 175.402,-316.812"/>
<polygon fill="black" stroke="black" points="172.81,-314.44 167.806,-323.778 177.542,-319.599 172.81,-314.44"/>
</g>
<!-- 16 -->
<g id="node13" class="node"><title>16</title>
<g id="a_node13"><a xlink:href="https://en.wikipedia.org/wiki/Symmetric_relation" xlink:title="Symmetric relation">
<ellipse fill="lightblue" stroke="black" cx="863.594" cy="-341.48" rx="79.0865" ry="18"/>
<text text-anchor="middle" x="863.594" y="-337.78" font-family="Times,serif" font-size="14.00">Symmetric relation</text>
</a>
</g>
</g>
<!-- 16&#45;&gt;1 -->
<g id="edge8" class="edge"><title>16&#45;&gt;1</title>
<path fill="none" stroke="black" d="M810.41,-354.89C750.234,-368.932 652.311,-391.782 588.419,-406.69"/>
<polygon fill="black" stroke="black" points="587.411,-403.332 578.468,-409.012 589.002,-410.148 587.411,-403.332"/>
</g>
<!-- 18&#45;&gt;1 -->
<g id="edge9" class="edge"><title>18&#45;&gt;1</title>
<path fill="none" stroke="black" d="M205.074,-354.118C273.457,-368.462 389.435,-392.79 461.539,-407.914"/>
<polygon fill="black" stroke="black" points="460.907,-411.358 471.413,-409.985 462.344,-404.507 460.907,-411.358"/>
</g>
<!-- 19&#45;&gt;13 -->
<g id="edge21" class="edge"><title>19&#45;&gt;13</title>
<path fill="none" stroke="black" d="M634.037,-284.211C612.181,-295.552 585.919,-309.178 564.714,-320.182"/>
<polygon fill="black" stroke="black" points="562.927,-317.166 555.663,-324.878 566.151,-323.379 562.927,-317.166"/>
</g>
<!-- 19&#45;&gt;16 -->
<g id="edge22" class="edge"><title>19&#45;&gt;16</title>
<path fill="none" stroke="black" d="M727.928,-282.954C756.223,-294.951 791.245,-309.802 818.617,-321.409"/>
<polygon fill="black" stroke="black" points="817.384,-324.687 827.957,-325.369 820.116,-318.243 817.384,-324.687"/>
</g>
<!-- 20 -->
<g id="node16" class="node"><title>20</title>
<g id="a_node16"><a xlink:href="https://en.wikipedia.org/wiki/Well-order" xlink:title="Well&#45;order">
<ellipse fill="none" stroke="black" cx="219.594" cy="-18" rx="50.0912" ry="18"/>
<text text-anchor="middle" x="219.594" y="-14.3" font-family="Times,serif" font-size="14.00">Well&#45;order</text>
</a>
</g>
</g>
<!-- 20&#45;&gt;6 -->
<g id="edge23" class="edge"><title>20&#45;&gt;6</title>
<path fill="none" stroke="black" d="M219.594,-36.3034C219.594,-44.0173 219.594,-53.2875 219.594,-61.8876"/>
<polygon fill="black" stroke="black" points="216.094,-61.8956 219.594,-71.8957 223.094,-61.8957 216.094,-61.8956"/>
</g>
<!-- 21 -->
<g id="node17" class="node"><title>21</title>
<g id="a_node17"><a xlink:href="https://en.wikipedia.org/wiki/Partially_ordered_set" xlink:title="Partial order\n(strict)">
<ellipse fill="none" stroke="black" cx="235.594" cy="-170.87" rx="59.2941" ry="26.7407"/>
<text text-anchor="middle" x="235.594" y="-174.67" font-family="Times,serif" font-size="14.00">Partial order</text>
<text text-anchor="middle" x="235.594" y="-159.67" font-family="Times,serif" font-size="14.00">(strict)</text>
</a>
</g>
</g>
<!-- 21&#45;&gt;13 -->
<g id="edge24" class="edge"><title>21&#45;&gt;13</title>
<path fill="none" stroke="black" d="M271.154,-192.545C326.743,-224.865 433.638,-287.016 489.533,-319.514"/>
<polygon fill="black" stroke="black" points="487.972,-322.655 498.377,-324.656 491.491,-316.604 487.972,-322.655"/>
</g>
<!-- 21&#45;&gt;15 -->
<g id="edge25" class="edge"><title>21&#45;&gt;15</title>
<path fill="none" stroke="black" d="M235.594,-198.195C235.594,-208.947 235.594,-221.382 235.594,-232.239"/>
<polygon fill="black" stroke="black" points="232.094,-232.449 235.594,-242.449 239.094,-232.449 232.094,-232.449"/>
</g>
<!-- 22 -->
<g id="node18" class="node"><title>22</title>
<g id="a_node18"><a xlink:href="https://en.wikipedia.org/wiki/Dependency_relation" xlink:title="Dependency relation">
<ellipse fill="none" stroke="black" cx="862.594" cy="-170.87" rx="83.6854" ry="18"/>
<text text-anchor="middle" x="862.594" y="-167.17" font-family="Times,serif" font-size="14.00">Dependency relation</text>
</a>
</g>
</g>
<!-- 22&#45;&gt;23 -->
<g id="edge28" class="edge"><title>22&#45;&gt;23</title>
<path fill="none" stroke="black" d="M862.594,-189.205C862.594,-201.542 862.594,-218.364 862.594,-232.471"/>
<polygon fill="black" stroke="black" points="859.094,-232.61 862.594,-242.61 866.094,-232.61 859.094,-232.61"/>
</g>
<!-- 24 -->
<g id="node20" class="node"><title>24</title>
<ellipse fill="lightblue" stroke="black" cx="948.594" cy="-422.35" rx="60.3893" ry="18"/>
<text text-anchor="middle" x="948.594" y="-418.65" font-family="Times,serif" font-size="14.00">Finite relation</text>
</g>
<!-- 22&#45;&gt;24 -->
<g id="edge29" class="edge"><title>22&#45;&gt;24</title>
<path fill="none" stroke="black" d="M896.322,-187.511C914.565,-197.881 935.565,-213.348 946.594,-233.74 974.286,-284.939 964.292,-356.076 955.732,-394.368"/>
<polygon fill="black" stroke="black" points="952.289,-393.716 953.388,-404.253 959.101,-395.331 952.289,-393.716"/>
</g>
<!-- 23&#45;&gt;14 -->
<g id="edge26" class="edge"><title>23&#45;&gt;14</title>
<path fill="none" stroke="black" d="M829.413,-277.004C802.296,-289.585 763.802,-307.444 734.549,-321.015"/>
<polygon fill="black" stroke="black" points="733.001,-317.876 725.402,-325.259 735.947,-324.225 733.001,-317.876"/>
</g>
<!-- 23&#45;&gt;16 -->
<g id="edge27" class="edge"><title>23&#45;&gt;16</title>
<path fill="none" stroke="black" d="M862.811,-278.724C862.938,-288.749 863.102,-301.644 863.246,-313.056"/>
<polygon fill="black" stroke="black" points="859.751,-313.445 863.377,-323.4 866.75,-313.356 859.751,-313.445"/>
</g>
<!-- 24&#45;&gt;0 -->
<g id="edge3" class="edge"><title>24&#45;&gt;0</title>
<path fill="none" stroke="black" d="M915.853,-437.643C885.83,-450.748 840.708,-470.445 804.746,-486.143"/>
<polygon fill="black" stroke="black" points="803.106,-483.039 795.342,-490.248 805.907,-489.455 803.106,-483.039"/>
</g>
</g>
</svg>
